<svg width="162" height="50" viewBox="0 0 214 66" fill="none" xmlns="http://www.w3.org/2000/svg">
    <path d="M8.80829 44.1359H3.26294V25.1954H8.16998V27.4051C8.7817 26.6948 9.61949 26.0635 10.6833 25.5111C11.7472 24.9323 12.944 24.6429 14.2739 24.6429C16.9069 24.6429 18.8617 25.5768 20.1384 27.4446C22.0799 25.5768 24.2076 24.6429 26.5215 24.6429C28.9684 24.6429 30.7636 25.4058 31.9073 26.9316C33.0775 28.431 33.6627 30.1673 33.6627 32.1402V44.1359H28.1572V32.4954C28.1572 31.522 27.8779 30.7592 27.3194 30.2067C26.7875 29.6543 26.0694 29.3781 25.1651 29.3781C23.7555 29.3781 22.4922 30.0094 21.3751 31.2721C21.4017 31.4563 21.415 31.7456 21.415 32.1402V44.1359H15.9095V32.4954C15.9095 31.522 15.6303 30.7592 15.0718 30.2067C14.5398 29.6543 13.8217 29.3781 12.9174 29.3781C11.3483 29.3781 9.97854 30.141 8.80829 31.6667V44.1359Z"
          fill="#333333"/>
    <path d="M46.6851 37.9802L51.4326 25.1954H57.1774L48.6799 46.4245C46.7915 51.0281 44.0388 53.3299 40.4217 53.3299C39.6504 53.3299 38.653 53.1853 37.4296 52.8959V48.3581C38.3073 48.5422 39.0653 48.6343 39.7036 48.6343C41.7249 48.6343 43.2409 47.2532 44.2516 44.491L44.2915 44.4121L35.2354 25.1954H41.0999L46.6851 37.9802Z"
          fill="#333333"/>
    <path d="M92.1452 20.7362L68.7449 9.92582C68.2625 9.70337 67.7247 9.62548 67.198 9.70178C65.5414 9.9314 64.0235 11.5563 64.0203 13.5289L63.9292 61.9829C63.9292 63.981 65.4608 65.1563 67.1013 64.9282C67.7268 64.8413 68.3685 64.5503 68.9465 64.0249L88.7007 46.0526L80.1429 42.0989C78.1528 41.1816 77.2216 39.2848 77.1297 37.5018C77.0381 35.7244 77.7397 33.8417 79.2286 32.4874L92.1452 20.7362Z"
          fill="url(#paint0_radial_13_1548)"/>
    <path d="M118.081 1.19835C119.724 0.97032 121.257 2.14557 121.253 4.14366L121.163 52.5977C121.159 54.5686 119.641 56.1936 117.985 56.4248C117.458 56.5012 116.921 56.4233 116.438 56.2008L81.1746 39.9091C79.1593 38.9802 79.0061 35.9719 80.8819 34.2656L116.236 2.10172C116.815 1.57628 117.455 1.28526 118.081 1.19835Z"
          fill="url(#paint1_radial_13_1548)"/>
    <path d="M135.656 44.1359H130.111V25.1954H135.656V44.1359ZM136.135 18.9213C136.135 19.9473 135.829 20.7233 135.217 21.2494C134.605 21.7756 133.821 22.0386 132.863 22.0386C131.932 22.0386 131.161 21.7756 130.549 21.2494C129.938 20.7233 129.632 19.9473 129.632 18.9213C129.632 17.9217 129.938 17.1588 130.549 16.6327C131.161 16.1066 131.932 15.8435 132.863 15.8435C133.794 15.8435 134.565 16.1066 135.177 16.6327C135.816 17.1588 136.135 17.9217 136.135 18.9213Z"
          fill="#333333"/>
    <path d="M141.87 19.6711L147.376 18.3689V25.1954H153.44V29.8121H147.376V37.2305C147.376 39.1245 148.4 40.0716 150.447 40.0716C151.671 40.0716 152.828 39.8611 153.918 39.4402V43.8597C152.323 44.4121 150.607 44.6883 148.772 44.6883C146.751 44.6883 145.088 44.1754 143.785 43.1494C142.508 42.1235 141.87 40.5056 141.87 38.2959V29.8121H138.639V25.1954H141.87V19.6711Z"
          fill="#333333"/>
    <path d="M162.654 44.1359H157.109V25.1954H162.016V27.4051C162.627 26.6948 163.465 26.0635 164.529 25.511C165.593 24.9323 166.79 24.6429 168.12 24.6429C170.753 24.6429 172.707 25.5768 173.984 27.4446C175.926 25.5768 178.053 24.6429 180.367 24.6429C182.814 24.6429 184.609 25.4058 185.753 26.9316C186.923 28.431 187.508 30.1673 187.508 32.1402V44.1359H182.003V32.4954C182.003 31.522 181.724 30.7592 181.165 30.2067C180.633 29.6543 179.915 29.3781 179.011 29.3781C177.601 29.3781 176.338 30.0094 175.221 31.2721C175.247 31.4563 175.261 31.7456 175.261 32.1402V44.1359H169.755V32.4954C169.755 31.522 169.476 30.7592 168.917 30.2067C168.386 29.6543 167.667 29.3781 166.763 29.3781C165.194 29.3781 163.824 30.141 162.654 31.6667V44.1359Z"
          fill="#333333"/>
    <path d="M194.011 42.0445C191.963 40.282 190.939 37.8224 190.939 34.6656C190.939 31.5089 191.963 29.0492 194.011 27.2867C196.059 25.5242 198.559 24.6429 201.511 24.6429C204.49 24.6429 206.99 25.5242 209.012 27.2867C211.059 29.0492 212.083 31.5089 212.083 34.6656C212.083 37.8224 211.059 40.282 209.012 42.0445C206.99 43.8071 204.49 44.6883 201.511 44.6883C198.559 44.6883 196.059 43.8071 194.011 42.0445ZM205.142 38.3748C206.019 37.4015 206.458 36.1651 206.458 34.6656C206.458 33.1662 206.019 31.9429 205.142 30.9959C204.264 30.0226 203.054 29.5359 201.511 29.5359C199.969 29.5359 198.759 30.0226 197.881 30.9959C197.03 31.9429 196.604 33.1662 196.604 34.6656C196.604 36.1651 197.03 37.4015 197.881 38.3748C198.759 39.3218 199.969 39.7954 201.511 39.7954C203.054 39.7954 204.264 39.3218 205.142 38.3748Z"
          fill="#333333"/>
    <defs>
        <radialGradient id="paint0_radial_13_1548" cx="0" cy="0" r="1" gradientUnits="userSpaceOnUse"
                        gradientTransform="translate(148.447 22.6988) rotate(173.014) scale(84.9893 32.4449)">
            <stop stop-color="#E02E2E"/>
            <stop offset="1" stop-color="#EE215B"/>
        </radialGradient>
        <radialGradient id="paint1_radial_13_1548" cx="0" cy="0" r="1" gradientUnits="userSpaceOnUse"
                        gradientTransform="translate(63.8094 43.0788) rotate(-9.87552) scale(58.2388 32.9907)">
            <stop stop-color="#0091FF"/>
            <stop offset="1" stop-color="#1846C7"/>
        </radialGradient>
    </defs>
</svg>
